<svg width="80" height="70.32" viewBox="0 0 88 79" fill="none" xmlns="http://www.w3.org/2000/svg">
<g filter="url(#filter0_d_621_1455)">
<path fill-rule="evenodd" clip-rule="evenodd" d="M9.384 1.65944C5.397 3.56078 4 7.88477 4 18.3235C4 25.6441 4.181 26.3746 6 26.3746C9.341 26.3746 12 30.2572 12 35.1365C12 40.0158 9.341 43.8984 6 43.8984C4.181 43.8984 4 44.6289 4 51.9495C4 62.6138 5.379 66.7264 9.603 68.6595C14.444 70.8741 73.556 70.8741 78.397 68.6595C82.621 66.7264 84 62.6138 84 51.9495C84 44.6289 83.819 43.8984 82 43.8984C78.659 43.8984 76 40.0158 76 35.1365C76 30.2572 78.659 26.3746 82 26.3746C83.819 26.3746 84 25.6441 84 18.3235C84 7.65915 82.621 3.54654 78.397 1.61344C73.634 -0.564986 13.969 -0.525558 9.384 1.65944ZM47.205 18.9817L49.763 25.827L56.632 26.7864C60.409 27.3143 63.712 27.9583 63.972 28.2168C64.232 28.4753 62.056 30.9998 59.136 33.8277L53.829 38.9698L55.337 46.0823C56.166 49.9945 56.682 53.3744 56.482 53.5923C56.282 53.8114 53.675 52.4588 50.688 50.587C47.701 48.7152 44.636 47.1973 43.878 47.2126C43.12 47.2279 40.056 48.9453 37.069 51.0295C34.082 53.1137 31.486 54.6525 31.299 54.4488C31.113 54.244 31.684 50.6779 32.567 46.5237L34.174 38.9698L28.865 33.8277C25.945 30.9998 23.768 28.4753 24.028 28.2168C24.288 27.9583 27.591 27.3143 31.368 26.7864L38.237 25.827L40.795 18.9817C42.202 15.2174 43.644 12.1365 44 12.1365C44.356 12.1365 45.798 15.2174 47.205 18.9817Z" fill="#FFB030"/>
</g>
<defs>
<filter id="filter0_d_621_1455" x="0" y="0" width="88" height="78.3203" filterUnits="userSpaceOnUse" color-interpolation-filters="sRGB">
<feFlood flood-opacity="0" result="BackgroundImageFix"/>
<feColorMatrix in="SourceAlpha" type="matrix" values="0 0 0 0 0 0 0 0 0 0 0 0 0 0 0 0 0 0 127 0" result="hardAlpha"/>
<feOffset dy="4"/>
<feGaussianBlur stdDeviation="2"/>
<feComposite in2="hardAlpha" operator="out"/>
<feColorMatrix type="matrix" values="0 0 0 0 0 0 0 0 0 0 0 0 0 0 0 0 0 0 0.25 0"/>
<feBlend mode="normal" in2="BackgroundImageFix" result="effect1_dropShadow_621_1455"/>
<feBlend mode="normal" in="SourceGraphic" in2="effect1_dropShadow_621_1455" result="shape"/>
</filter>
</defs>
</svg>
