<svg width="60" height="48" viewBox="0 0 61 60" fill="none" xmlns="http://www.w3.org/2000/svg">
<path d="M42 6C42 2.67 44.67 0 48 0C51.33 0 54 2.67 54 6C54 9.33 51.33 12 48 12C44.67 12 42 9.33 42 6ZM54 57V42H57.33C59.37 42 60.81 39.99 60.18 38.04L53.88 19.11C53.04 16.65 50.76 15 48.18 15H47.82C45.24 15 42.93 16.65 42.12 19.11L39.54 26.85C42.78 28.65 45 32.04 45 36V60H51C52.65 60 54 58.65 54 57ZM31.5 28.5C33.99 28.5 36 26.49 36 24C36 21.51 33.99 19.5 31.5 19.5C29.01 19.5 27 21.51 27 24C27 26.49 29.01 28.5 31.5 28.5ZM10.5 12C13.83 12 16.5 9.33 16.5 6C16.5 2.67 13.83 0 10.5 0C7.17 0 4.5 2.67 4.5 6C4.5 9.33 7.17 12 10.5 12ZM16.5 57V39H18C19.65 39 21 37.65 21 36V21C21 17.7 18.3 15 15 15H6C2.7 15 0 17.7 0 21V36C0 37.65 1.35 39 3 39H4.5V57C4.5 58.65 5.85 60 7.5 60H13.5C15.15 60 16.5 58.65 16.5 57ZM24 36V45C24 46.65 25.35 48 27 48V57C27 58.65 28.35 60 30 60H33C34.65 60 36 58.65 36 57V48C37.65 48 39 46.65 39 45V36C39 33.54 36.96 31.5 34.5 31.5H28.5C26.04 31.5 24 33.54 24 36Z" fill="white"/>
</svg>
