<svg width="167" height="120" viewBox="0 0 167 120" fill="none" xmlns="http://www.w3.org/2000/svg">
<path fill-rule="evenodd" clip-rule="evenodd" d="M106.856 0.0546015C105.615 0.356227 104.766 2.74857 105.127 4.9303C105.609 7.84716 106.45 14.6772 106.845 18.8845C107.805 29.1273 107.972 44.2615 107.193 50.6175C106.059 59.8741 103.176 72.3197 100.97 77.4863C99.9276 79.9275 100.015 80.4275 101.621 81.213C102.543 81.6641 102.899 81.703 105.879 81.6794C109.583 81.6501 110.309 81.4954 110.724 80.6471C110.885 80.3171 111.828 76.8865 112.818 73.0237C114.593 66.099 115.152 64.2169 115.811 62.9536C116.469 61.6901 116.587 61.6923 118.801 63.0052C121.71 64.7311 129.168 68.3317 138.065 72.3042C146.762 76.1879 148.518 76.8645 149.901 76.8645C152.534 76.8645 153.3 75.0199 151.424 73.1994C149.316 71.1543 140.112 64.3908 133.724 60.1912C129.819 57.6251 128.294 56.3295 127.868 55.2179C127.527 54.3268 127.632 53.0228 128.123 52.0684C128.377 51.5743 130.653 48.5044 133.181 45.2464C144.151 31.1089 149.426 23.6789 149.975 21.5903C150.5 19.5921 149.27 17.5011 147.565 17.4908C146.786 17.4861 146.648 17.6291 140.956 24.3167C132.905 33.776 129.667 37.3946 126.55 40.4154C123.934 42.9506 121.569 44.8658 120.727 45.1311C119.943 45.378 119.425 44.8832 119.425 43.8869C119.424 40.5907 117.138 25.0385 115.387 16.4104C114.541 12.2438 112.679 4.79821 112.193 3.64441C111.303 1.53153 108.511 -0.347279 106.856 0.0546015ZM52.3433 0.190784C47.6634 0.83233 44.0165 1.76818 40.5308 3.22188C38.5359 4.05404 34.4698 6.256 33.5951 6.97822L33.0532 7.42549L33.6588 7.06621C35.7332 5.83497 36.4038 5.46902 36.8675 5.31541C37.6668 5.05036 39.9287 5.2117 40.4912 5.574C40.8373 5.79688 41.0753 5.82981 41.2569 5.68007C41.4021 5.56067 41.6447 5.53894 41.7962 5.63188C42.0534 5.78958 44.3889 5.12801 45.0514 4.70957C45.2779 4.5665 45.312 4.6289 45.1995 4.98087C45.0636 5.40555 45.1147 5.43029 45.921 5.3296C46.5526 5.25086 46.9928 5.341 47.5379 5.66027C47.9501 5.90165 48.4072 6.07141 48.5542 6.03763C48.7011 6.00385 48.8659 6.09722 48.9205 6.24502C48.9799 6.40573 48.8381 6.51395 48.5683 6.51395C48.3201 6.51395 48.1168 6.61076 48.1168 6.72908C48.1168 6.96014 48.6693 7.03566 49.7966 6.95864C50.5127 6.90981 50.5961 7.02167 50.5086 7.91235L50.4661 8.34263L50.8018 7.91235C50.9865 7.6757 51.1406 7.37364 51.1443 7.24133C51.1525 6.95777 52.7048 6.66282 52.8763 6.91238C53.0744 7.20088 53.8215 7.44852 54.6501 7.50036C55.5762 7.55845 56.4196 7.9543 56.2379 8.24582C56.1679 8.35833 56.2232 8.4502 56.3606 8.4502C56.498 8.4502 56.6614 8.25657 56.7236 8.01992C56.7861 7.78327 56.967 7.58964 57.1257 7.58964C57.2846 7.58964 57.6615 7.36224 57.9634 7.08449L58.5126 6.57935L57.9227 6.31258C57.383 6.06861 57.3646 6.02278 57.7064 5.77451C57.9121 5.62542 58.0193 5.44298 57.9452 5.36919C57.7553 5.18073 58.9671 4.75174 59.3152 4.88448C59.6763 5.02196 59.5951 5.89886 59.1921 6.2121C58.9715 6.38357 58.9565 6.49028 59.1379 6.60129C59.2751 6.68563 59.3874 6.95434 59.3874 7.19831C59.3874 7.56276 59.444 7.59567 59.703 7.38225C60.1683 6.99909 60.5208 7.30135 60.2013 7.8093C59.9971 8.13351 59.998 8.28175 60.2041 8.48635C60.4117 8.69245 60.6033 8.62016 61.0997 8.14815C61.4469 7.81791 61.8134 7.55715 61.914 7.56855C62.0143 7.58017 62.0967 7.50079 62.0967 7.39236C62.0967 6.96208 62.435 6.90335 62.9569 7.24284C63.5792 7.64752 63.675 8.01992 63.157 8.01992C62.8995 8.01992 62.8416 8.1518 62.9357 8.52377C63.0332 8.90973 62.9405 9.09282 62.5395 9.30581C62.0943 9.54225 61.9627 9.53128 61.6615 9.23223C61.1987 8.77291 60.9829 8.77765 61.3658 9.2389C61.6335 9.5614 61.6053 9.58291 61.0843 9.45425C60.6022 9.33507 60.3584 9.45511 59.6297 10.1715C59.0018 10.7883 58.5714 11.0319 58.1082 11.0319C57.753 11.0319 57.401 11.1302 57.3262 11.2505C57.2512 11.3707 57.0826 11.4032 56.9514 11.3227C56.7947 11.2266 56.7637 11.3081 56.8611 11.56C56.9848 11.8797 56.9172 11.9262 56.4571 11.8389C56.1532 11.7812 55.9508 11.7799 56.0071 11.8361C56.0637 11.892 55.7104 12.2423 55.2221 12.6144C54.1722 13.4143 53.6078 14.1456 53.4133 14.9582C53.3035 15.4166 53.35 15.5498 53.6203 15.5498C54.0417 15.5498 54.0939 16.4074 53.6979 16.8254C53.4751 17.0605 53.5332 17.0865 54.025 16.9714C54.7535 16.801 55.6933 17.2473 56.6903 18.2367C57.085 18.6285 57.456 18.901 57.5152 18.8425C57.5742 18.784 57.9105 18.7988 58.2627 18.8756C58.882 19.0105 58.8963 19.0413 58.6951 19.8104C58.4077 20.9091 58.4632 21.6324 58.8516 21.848C59.0322 21.9485 59.1295 22.1111 59.0681 22.2099C59.0066 22.3084 59.1022 22.4446 59.2803 22.5126C59.4585 22.5803 59.6057 22.518 59.6074 22.3738C59.6098 22.1937 59.6703 22.2047 59.8007 22.4091C60.0357 22.7774 60.2583 21.904 60.2897 20.4905C60.3105 19.5497 60.3339 19.5193 61.4324 19.0135C62.473 18.5344 62.5482 18.449 62.4732 17.8303C62.4288 17.4635 62.2792 16.9351 62.1411 16.6563C61.9268 16.223 61.958 16.0945 62.3557 15.7748C62.6845 15.5104 62.8483 15.0907 62.9134 14.3457C62.9962 13.3928 63.0555 13.293 63.5263 13.3126C64.9642 13.3724 65.8897 13.779 65.8897 14.3513C65.8897 14.4915 66.1511 14.6974 66.4703 14.8091C67.0235 15.0023 67.033 15.0298 66.6717 15.3884C66.463 15.5954 66.401 15.7649 66.5339 15.7649C66.82 15.7649 66.7432 16.4487 66.4315 16.6761C66.3123 16.763 66.4311 16.8355 66.6957 16.8374C67.0334 16.8396 67.1394 16.9368 67.0519 17.1633C66.7493 17.9458 68.5491 17.1143 68.9978 16.2643L69.299 15.6935L69.586 16.8049C69.7438 17.4161 69.9408 17.9163 70.0234 17.9163C70.2839 17.9163 70.3901 18.9727 70.1389 19.0626C69.9967 19.1134 70.0984 19.3634 70.389 19.6777C70.6585 19.969 70.8048 20.2882 70.7142 20.3872C70.6238 20.486 70.6717 20.4974 70.8206 20.4122C70.9697 20.3272 71.0915 20.3657 71.0915 20.498C71.0915 20.6303 71.1747 20.6875 71.2764 20.6252C71.378 20.5628 71.6461 20.6508 71.8724 20.8207C72.2725 21.1215 72.2717 21.1299 71.8373 21.1365C71.592 21.1404 71.2018 21.2966 70.9704 21.4838C70.5557 21.8192 70.5557 21.8218 70.9831 21.6712C71.9073 21.3454 72.4591 21.2917 72.3031 21.5425C72.2147 21.6845 72.2836 21.7888 72.4659 21.7888C72.9572 21.7888 72.8911 23.2451 72.3928 23.4022C72.1787 23.4695 71.9201 23.4999 71.8185 23.4695C71.7166 23.4392 71.3672 23.5909 71.0421 23.8064C70.5553 24.1293 70.2107 24.1732 69.0914 24.054C68.3436 23.9744 67.5664 23.8628 67.3638 23.8062C67.1613 23.7494 66.8052 23.892 66.5724 24.1231C66.3396 24.3542 65.9629 24.6018 65.7354 24.6737C65.5076 24.7453 64.9859 25.1532 64.576 25.5798L63.8306 26.3556L64.8129 25.6773C65.4952 25.2063 66.0841 24.9852 66.7404 24.9538C67.8057 24.9026 68.1876 25.3232 67.3709 25.648C67.0926 25.7586 66.9871 25.8554 67.136 25.8629C67.2851 25.8703 67.4069 26.1035 67.4069 26.381C67.4069 26.9468 68.0179 27.5976 68.5491 27.5976C68.7411 27.5976 68.9592 27.6951 69.0333 27.8142C69.177 28.0449 68.8974 28.1955 68.1211 28.3061C67.8581 28.3435 67.4411 28.5554 67.1947 28.7768C66.8373 29.098 66.6925 29.1251 66.4805 28.911C66.2701 28.6985 66.3184 28.5586 66.7131 28.2385C66.987 28.0163 67.3284 27.862 67.4717 27.8958C67.6147 27.9298 67.6583 27.9167 67.5681 27.8667C67.478 27.8168 67.4654 27.6778 67.54 27.5578C67.623 27.4246 67.5023 27.4317 67.2305 27.5761C66.9855 27.7063 66.5837 27.8128 66.3375 27.8128C66.0913 27.8128 65.8897 27.9083 65.8897 28.0249C65.8897 28.1415 65.4538 28.3459 64.9209 28.479C63.7788 28.7645 63.4333 29.1124 63.4333 29.9768C63.4333 30.3262 63.3276 30.5962 63.1984 30.5769C63.0692 30.5575 62.8174 30.5973 62.6385 30.6653C62.4597 30.7333 62.0453 30.8471 61.7174 30.9185C61.3513 30.9981 61.1188 31.1917 61.1144 31.4204C61.1107 31.6252 60.9805 31.9589 60.8251 32.1618C60.6023 32.4531 60.4843 32.4757 60.2659 32.2694C60.0437 32.0598 60.0179 32.1031 60.135 32.4877C60.2151 32.7515 60.1857 33.1362 60.0695 33.3423C59.8896 33.6613 59.8261 33.606 59.6423 32.9701C59.5238 32.5592 59.4177 32.3924 59.4069 32.5996C59.3963 32.8068 59.2656 32.9776 59.1165 32.9793C58.9481 32.9815 58.9277 33.0424 59.063 33.1407C59.4353 33.4113 59.4364 35.1094 59.0647 35.4786C58.7723 35.7688 57.546 36.6948 55.9737 37.8129C55.4165 38.2089 55.3584 38.8804 55.7151 40.7964C55.9592 42.107 55.8441 42.8725 55.4033 42.8725C55.0593 42.8725 54.4023 41.521 54.4023 40.8139C54.4023 40.5178 54.2461 40.0389 54.0551 39.7495C53.7829 39.3373 53.6238 39.2681 53.3193 39.4301C53.0406 39.5781 52.8555 39.5465 52.6647 39.3182C52.4961 39.1166 52.0095 39 51.3361 39C50.4021 39 50.2485 39.0652 50.0675 39.5379C49.8434 40.1228 49.3882 40.2366 49.0224 39.7992C48.7003 39.4139 46.7825 39.5437 46.5441 39.9666C46.4436 40.145 46.183 40.2908 45.9652 40.2908C45.3689 40.2908 44.9838 40.8924 44.9838 41.8239C44.9838 42.2824 44.9164 42.6574 44.8336 42.6574C44.751 42.6574 44.6171 43.2716 44.5362 44.0222C44.2883 46.321 45.3512 47.7994 47.1842 47.7056C48.1914 47.654 48.7263 47.251 48.9649 46.364C49.098 45.8701 49.2855 45.7474 50.1479 45.5904C51.3712 45.3677 51.5431 45.4796 51.0721 46.193C50.8772 46.4881 50.7177 46.9722 50.7177 47.2685C50.7177 47.629 50.6221 47.7708 50.4288 47.6972C50.2173 47.6166 50.1648 47.7555 50.2329 48.2164C50.284 48.5623 50.219 48.9111 50.0883 48.9913C49.5289 49.3344 49.9385 49.5337 51.1369 49.5007C51.8528 49.4812 52.5583 49.5771 52.7282 49.717C52.896 49.8553 53.0976 49.9048 53.176 49.8269C53.3969 49.6077 53.3451 50.2983 53.0618 51.3496C52.8249 52.2289 52.8459 52.3642 53.3327 53.0854C53.8134 53.7979 53.9281 53.8565 54.6191 53.7405C55.9603 53.5152 56.3762 53.5761 56.9118 54.0755C57.3583 54.492 57.4367 54.5103 57.4367 54.1981C57.4367 53.9963 57.583 53.7754 57.7618 53.7074C57.9407 53.6392 58.087 53.4079 58.087 53.1934C58.087 52.9167 58.4008 52.7001 59.1681 52.4471C59.7628 52.2511 60.3049 52.0011 60.3729 51.892C60.5903 51.5428 60.9378 51.679 60.827 52.0697C60.5123 53.1794 60.4536 53.8446 60.6707 53.8446C60.7993 53.8446 60.9046 53.5645 60.9046 53.2222C60.9046 52.8531 61.0442 52.5467 61.2475 52.4692C61.8544 52.238 62.8057 52.33 62.922 52.6312C63.0469 52.9539 65.2293 52.9712 65.9794 52.6553C66.2735 52.5314 66.3485 52.554 66.2373 52.7328C66.1405 52.8883 66.2928 53.0652 66.6353 53.1943C66.9404 53.3094 67.1901 53.503 67.1901 53.6241C67.1901 53.7454 67.37 53.8446 67.59 53.8446C68.0311 53.8446 68.7073 54.481 68.7073 54.8962C68.7073 55.0416 68.7971 55.1058 68.9065 55.0387C69.0162 54.9713 69.2357 55.0382 69.3942 55.1873C69.5528 55.3362 70.1348 55.464 70.6875 55.4711C71.9396 55.4874 72.6317 55.9255 73.2422 57.0883L73.7175 57.9936L73.0123 58.7158C72.2764 59.4694 72.3079 59.6181 73.1107 59.1799C73.371 59.0376 73.7613 58.892 73.9783 58.8563C74.2923 58.8042 74.345 58.8896 74.2379 59.276C74.1116 59.7319 74.1224 59.7375 74.4202 59.37C74.7018 59.0224 74.8351 59.0082 75.6234 59.2427C76.1128 59.3881 76.5101 59.6413 76.5101 59.8077C76.5101 59.9869 76.6152 60.0445 76.7695 59.9499C77.2723 59.6416 79.2007 59.8849 79.6667 60.3156C79.9129 60.543 80.2768 60.7291 80.4754 60.7291C80.9953 60.7291 81.1568 61.6479 80.7643 62.3732C80.5816 62.7114 80.033 63.4082 79.5453 63.9217C78.8966 64.605 78.606 65.1321 78.4618 65.8868C78.1439 67.5509 76.8484 69.5498 76.0881 69.5498C75.7458 69.5498 73.7204 70.7821 73.1785 71.32C73.0248 71.4727 72.9414 71.724 72.9934 71.8787C73.0454 72.0334 72.2888 72.9374 71.3119 73.8876C69.6228 75.5309 69.4945 75.6113 68.6883 75.535C68.2218 75.4909 67.8404 75.53 67.8404 75.6219C67.8404 75.7138 67.9659 75.7888 68.1193 75.7888C68.2728 75.7888 68.4136 75.9898 68.4323 76.2353C68.4678 76.7036 67.424 77.2948 66.5616 77.2948C66.326 77.2948 66.0741 77.4872 65.9981 77.7251C65.9003 78.031 65.6701 78.1554 65.2018 78.1554C64.6944 78.1554 64.5726 78.2324 64.6723 78.4904C64.7514 78.6945 64.5788 79.0303 64.2303 79.3509C63.7281 79.8128 63.7088 79.8773 64.0699 79.8834C64.4633 79.8898 64.4622 79.9034 64.0474 80.1988C63.809 80.3683 63.5164 80.588 63.3971 80.6867C62.6435 81.311 61.2289 81.1682 61.0392 80.4488C60.9731 80.1973 61.0019 79.909 61.1034 79.8083C61.3611 79.5525 61.1298 78.8008 60.7934 78.8008C60.4831 78.8008 60.4742 77.382 60.7815 76.8882C60.8816 76.7273 61.0804 75.3252 61.2234 73.7721C61.451 71.2974 61.4801 70.4153 61.3661 69.411C61.3507 69.2755 60.6094 68.7972 59.7186 68.3485C58.1921 67.5791 58.0358 67.4313 56.9909 65.7651C55.8458 63.9394 55.1698 63.0956 54.8527 63.0956C54.7519 63.0956 54.6219 62.8482 54.5636 62.5457C54.4611 62.0132 54.8545 61.3745 55.2847 61.3745C55.3955 61.3745 55.486 61.1691 55.486 60.918C55.486 60.5363 55.4325 60.5053 55.1609 60.7291C54.9821 60.8765 54.8237 60.9367 54.8087 60.8629C54.706 60.3549 54.7407 60.1392 54.9895 59.7438C55.1442 59.4976 55.2077 59.2336 55.1306 59.1573C55.0536 59.0807 55.167 58.951 55.3829 58.8686C55.5985 58.7864 56.0487 58.4211 56.3829 58.0568C56.8576 57.5394 56.992 57.1812 56.9969 56.4205C57.0004 55.877 56.8539 55.2348 56.6656 54.9679C56.4798 54.7045 56.3838 54.3997 56.4521 54.29C56.6779 53.9272 55.7182 53.7988 55.3692 54.145C55.1865 54.3263 55.0406 54.5266 55.0448 54.5899C55.0491 54.6533 55.0526 54.7648 55.0526 54.8375C55.0526 54.9102 54.8107 54.8125 54.5153 54.6204C54.2196 54.4281 53.732 54.2506 53.4315 54.2258C53.1309 54.2013 52.8851 54.0673 52.8851 53.9283C52.8851 53.6859 52.365 53.3644 51.9098 53.3253C51.7906 53.3152 51.6631 53.099 51.6267 52.8451C51.5903 52.5912 51.3708 52.2132 51.1391 52.005C50.9074 51.7969 50.7177 51.4861 50.7177 51.3142C50.7177 51.1345 50.5886 51.051 50.4136 51.1175C49.8651 51.3266 48.1198 50.6487 47.1267 49.8411C46.2563 49.1331 46.0942 49.075 45.605 49.2964C45.1401 49.5066 44.8134 49.4431 43.4443 48.8775C42.5572 48.5109 41.8313 48.123 41.8313 48.0158C41.8313 47.9085 41.6607 47.8203 41.452 47.8196C41.2433 47.8192 40.7469 47.5156 40.3486 47.1452C39.7857 46.6215 39.6487 46.3464 39.7328 45.9092C39.8728 45.1825 39.4116 44.1044 38.4754 42.9706C38.0654 42.4737 37.7847 42.0128 37.8517 41.9463C37.9187 41.8796 37.7682 41.6066 37.5172 41.3392C36.9249 40.708 36.196 39.2063 36.196 38.6168C36.196 38.1545 35.5072 37.604 35.249 37.8602C34.9625 38.1448 35.1372 38.8449 35.8438 40.2424C36.2463 41.0382 36.6481 42.0227 36.7372 42.43C36.8263 42.8374 37.0335 43.3043 37.1978 43.4674C37.8061 44.0713 37.4728 44.2212 36.8462 43.6255C36.4886 43.2854 36.196 42.7914 36.196 42.5278C36.196 42.2641 35.9123 41.7826 35.5657 41.4577C35.0447 40.9698 34.9774 40.8001 35.179 40.4797C35.3728 40.1719 35.3318 39.9692 34.9794 39.4922C34.7353 39.1624 34.3977 38.27 34.2288 37.5093C33.9681 36.3346 33.8183 36.0655 33.2338 35.7232C32.5515 35.3235 32.4227 34.9952 32.1576 32.9761C32.1188 32.6803 32.0235 32.1121 31.9457 31.7132C31.7671 30.7972 32.1609 28.9971 32.9639 27.0598C33.3072 26.2315 33.649 25.154 33.7236 24.6657C33.8352 23.9321 33.9297 23.7959 34.2663 23.8834C34.4904 23.9415 34.6205 24.0749 34.5552 24.1799C34.4898 24.2847 34.5284 24.3705 34.6406 24.3705C34.9783 24.3705 35.0999 23.5026 34.8474 22.8953C34.7174 22.5825 34.6328 22.1552 34.6593 21.9455C34.6859 21.7357 34.6281 21.5778 34.5308 21.5944C34.0164 21.6824 33.8211 21.5208 33.861 21.041C33.8855 20.748 34.0307 20.4606 34.1837 20.4023C34.3368 20.344 34.462 20.1908 34.462 20.0617C34.462 19.9328 34.3747 19.8808 34.2681 19.9462C33.9577 20.1366 33.7791 19.398 34.0554 19.0673C34.2564 18.827 34.2355 18.7941 33.9507 18.9025C33.4407 19.0968 33.5029 18.5792 34.0604 17.9903C34.3996 17.6317 34.464 17.4241 34.2982 17.2234C34.0073 16.8716 33.887 15.9467 34.0899 15.6234C34.1757 15.4865 34.1547 15.1477 34.0426 14.8704C33.9299 14.5909 33.8317 14.5102 33.8222 14.6892C33.807 14.976 33.7819 14.976 33.5951 14.6892C33.4551 14.4741 33.384 14.4562 33.3816 14.6355C33.3798 14.7835 33.2695 14.9044 33.1362 14.9044C33.001 14.9044 32.9442 14.7146 33.0077 14.4741C33.0699 14.2375 33.0207 14.0438 32.898 14.0438C32.7745 14.0438 32.8079 13.8814 32.9726 13.6798C33.136 13.4795 33.1633 13.3793 33.0328 13.4567C32.7212 13.6417 31.1671 13.2125 31.3113 12.981C31.3724 12.8827 31.1804 12.7562 30.8843 12.7001C30.2564 12.5809 29.5416 13.0533 28.1551 14.5036C27.6303 15.0522 26.811 15.8267 26.3342 16.2247L25.4672 16.9482L26.3158 15.9005C27.02 15.0313 27.0846 14.8779 26.6951 15.0008C26.1734 15.1651 26.0823 14.9287 26.4968 14.4855C26.7135 14.2538 26.7135 14.2263 26.4968 14.3476C26.3479 14.4311 26.2258 14.3969 26.2258 14.2717C26.2258 14.1465 26.3234 14.0438 26.4426 14.0438C26.5618 14.0438 26.6593 13.9033 26.6593 13.7319C26.6593 13.5602 27.4884 12.7326 28.5016 11.8924C30.389 10.3277 30.8023 9.87637 29.7479 10.5319L29.1518 10.9026L29.6755 10.3236C29.9636 10.0052 30.6218 9.54181 31.1385 9.29354C31.6552 9.04527 32.0779 8.7359 32.0779 8.60617C32.0779 8.47644 32.2974 8.12878 32.5655 7.83339C33.6289 6.66239 29.2873 10.1801 27.525 11.9176C20.8368 18.5103 16.7126 27.0049 15.5849 36.5098C15.273 39.1396 15.4433 45.3161 15.8939 47.7132C17.2278 54.8076 20.1356 61.2482 24.3445 66.4303C26.1142 68.6092 29.7498 72.1039 31.8611 73.6553C44.303 82.7981 60.3749 84.3802 74.2804 77.8314C82.7026 73.8651 89.7847 66.8348 93.7242 58.5302C96.2705 53.1624 97.4593 48.2712 97.6864 42.2271C98.2396 27.512 90.6972 13.6927 77.8105 5.81023C74.2551 3.6356 69.1965 1.66126 64.6976 0.692273C62.9179 0.309109 61.6773 0.214441 57.7618 0.163668C55.1393 0.129461 52.7009 0.141732 52.3433 0.190784ZM67.8404 1.89985C68.0192 1.93857 68.4377 2.02721 68.7706 2.09692C69.3032 2.20857 69.3374 2.26194 69.0569 2.54033C68.8818 2.71416 68.4468 2.85657 68.0907 2.85657C67.7344 2.85657 67.406 2.96673 67.3607 3.1014C67.2998 3.2832 67.085 3.28471 66.5299 3.10786C66.1181 2.97663 65.4157 2.81376 64.9685 2.74556C64.5216 2.67758 64.1557 2.52762 64.1557 2.41252C64.1557 2.29333 64.4033 2.26473 64.7299 2.34605C65.1519 2.45104 65.2609 2.41942 65.1408 2.22665C65.0509 2.08229 65.3873 2.17178 65.8879 2.42543C66.3888 2.67908 66.8453 2.84023 66.9023 2.78364C66.9593 2.72706 66.7961 2.61455 66.5393 2.53366C66.0871 2.39123 66.085 2.37445 66.4688 1.9887C66.6866 1.76969 67.0113 1.64448 67.1901 1.7101C67.3689 1.77593 67.6616 1.86134 67.8404 1.89985ZM71.6334 3.40969C72.7273 3.59342 75.7008 5.09682 78.1183 6.68821C80.2465 8.0892 83.3622 10.5846 83.3971 10.9161C83.4549 11.4688 83.5923 11.8931 83.7633 12.0475C83.8652 12.1396 83.8726 12.0846 83.7796 11.9247C83.6431 11.6904 83.6981 11.6809 84.0648 11.8759C84.3149 12.0088 84.6327 12.333 84.7708 12.5966L85.0218 13.0757L84.5048 12.619C83.9257 12.1076 83.2456 12.1465 83.6801 12.6663C83.8188 12.8324 84.0549 12.9681 84.2044 12.9681C84.6448 12.9681 85.0337 13.5406 84.6839 13.6738C84.3024 13.8192 83.1959 13.6148 82.8376 13.3332C82.6818 13.2106 82.5754 13.1994 82.601 13.3083C82.7278 13.8459 82.2841 14.2674 81.6326 14.2278C80.8349 14.1794 79.9894 14.4188 79.9508 14.7037C79.8962 15.1077 79.8488 15.2368 79.5735 15.7297C79.419 16.0059 79.3453 16.2845 79.4099 16.3484C79.4744 16.4125 79.3806 16.7462 79.2016 17.09C78.8782 17.7109 78.4607 17.7449 78.4607 17.1507C78.4607 16.9689 78.2505 16.8406 77.9525 16.8406C77.6729 16.8406 77.2854 16.6664 77.0912 16.4534C76.6002 15.9149 76.0714 14.3502 76.3026 14.1206C76.4106 14.0135 76.4041 13.7947 76.2877 13.6118C76.1511 13.3975 76.0822 13.3803 76.0798 13.5598C76.0781 13.7078 75.9953 13.8287 75.896 13.8287C75.7965 13.8287 75.7053 13.7078 75.6929 13.5598C75.6808 13.412 75.6203 12.9763 75.5588 12.5916C75.4853 12.133 75.5367 11.8873 75.7077 11.8774C75.8509 11.869 75.7731 11.7791 75.5347 11.6773C75.2963 11.5755 75.2296 11.4856 75.3865 11.4772C75.5432 11.469 75.8603 11.5624 76.0909 11.6848C76.5612 11.9348 76.6525 11.6896 76.2409 11.281C76.0625 11.1039 76.0469 10.9626 76.1943 10.8615C76.3165 10.7778 76.4039 10.5639 76.388 10.3865C76.3722 10.209 76.3445 9.89982 76.3263 9.69931C76.2864 9.2587 75.2263 8.01411 75.2165 8.39642C75.2126 8.54443 75.1177 8.66534 75.0052 8.66534C74.8929 8.66534 74.8388 8.47064 74.8849 8.23291C74.9811 7.73723 74.5344 6.62129 73.9694 5.94554C73.5179 5.40554 72.5647 4.90471 71.5941 4.69731C71.215 4.61642 70.7761 4.39504 70.6188 4.2055C70.3645 3.89914 70.4051 3.87677 70.9831 4.00392C71.5946 4.13838 71.5848 4.12094 70.8206 3.71175C69.9673 3.25501 69.7425 2.96544 70.3871 3.15326C70.5958 3.21414 71.1565 3.32945 71.6334 3.40969ZM52.2349 6.3812C52.2349 6.4266 52.0396 6.51437 51.8012 6.57633C51.5626 6.63829 51.4219 6.60107 51.4889 6.49393C51.6055 6.30655 52.2349 6.21146 52.2349 6.3812ZM56.4521 7.35966C56.6693 7.70841 56.1974 7.81447 55.9176 7.47971C55.6997 7.21918 55.713 7.15936 55.9887 7.15936C56.1749 7.15936 56.3836 7.24951 56.4521 7.35966ZM75.9467 9.65541C76.0382 9.89206 75.9474 9.88195 75.5282 9.60937C74.8838 9.19028 74.8548 9.10014 75.4114 9.2445C75.6416 9.30431 75.8824 9.48911 75.9467 9.65541ZM58.5204 9.84861C58.6689 10.0261 58.8878 10.1713 59.007 10.1713C59.128 10.1713 59.1043 10.0287 58.9539 9.84861C58.8055 9.67112 58.5866 9.5259 58.4673 9.5259C58.3464 9.5259 58.37 9.66854 58.5204 9.84861ZM56.2446 11.247C56.171 11.3653 56.2141 11.4622 56.3402 11.4622C56.4664 11.4622 56.5698 11.3653 56.5698 11.247C56.5698 11.1287 56.5268 11.0319 56.4742 11.0319C56.4215 11.0319 56.3183 11.1287 56.2446 11.247ZM29.9241 13.6301C28.9518 14.439 28.7162 14.2026 29.6603 13.3653C30.0591 13.0116 30.449 12.7872 30.5271 12.8662C30.6051 12.9453 30.3337 13.2891 29.9241 13.6301ZM88.1114 17.2021C88.7712 18.2016 87.7115 18.5127 86.7839 17.5919C86.1373 16.9501 86.2513 16.6479 87.1309 16.6726C87.5555 16.6847 87.8886 16.8645 88.1114 17.2021ZM95.4564 30.1793C96.1023 32.5357 96.125 32.761 95.7163 32.761C95.4126 32.761 95.2184 33.3954 95.0047 35.0877C94.9097 35.8387 94.7786 36.0569 94.3187 36.2305C93.9279 36.3781 93.7261 36.3738 93.6732 36.2165C93.6312 36.0909 93.4693 35.9881 93.3137 35.9881C92.9859 35.9881 92.8024 35.1241 92.7419 33.2988C92.7094 32.3141 92.7681 32.0239 92.9899 32.0753C94.4401 32.4107 94.4997 32.4017 94.4997 31.846C94.4997 31.1642 93.9125 29.749 93.6299 29.749C93.5122 29.749 93.416 29.6038 93.416 29.4263C93.416 29.2488 93.4892 29.115 93.5785 29.129C94.0653 29.2054 94.263 29.038 94.3961 28.4369C94.6044 27.4956 94.8161 27.8435 95.4564 30.1793ZM96.951 38.4622C97.2933 41.8192 96.6079 49.692 95.7865 51.8363C95.5643 52.4165 95.1499 52.509 95.1499 51.9785C95.1499 51.6739 95.0712 51.6915 94.6416 52.0923C94.0935 52.6033 92.6073 53.4143 92.2189 53.4143C91.9025 53.4143 91.0318 52.2317 91.0318 51.8019C91.0318 51.4467 90.4262 50.3951 90.0831 50.1546C89.965 50.0719 89.9552 49.4986 90.0593 48.7562C90.1562 48.0643 90.2541 46.8687 90.2767 46.0996C90.3287 44.329 91.2191 42.0317 92.2458 41.0191C92.5282 40.7407 92.7573 40.1521 92.8481 39.4711C92.9289 38.8668 93.0958 38.3105 93.2189 38.235C93.342 38.1594 93.5272 37.8772 93.6303 37.6076C93.7716 37.2386 93.9459 37.1416 94.3347 37.2154C94.6477 37.2748 94.9668 37.1752 95.1447 36.9624C95.3285 36.7426 95.6879 36.6356 96.1068 36.6763L96.7755 36.741L96.951 38.4622ZM73.584 59.8685C73.6577 59.9869 73.7609 60.0837 73.8136 60.0837C73.8662 60.0837 73.9091 59.9869 73.9091 59.8685C73.9091 59.7502 73.8058 59.6534 73.6796 59.6534C73.5535 59.6534 73.5103 59.7502 73.584 59.8685ZM93.43 90.0956L92.3062 91.7092H93.2077C93.9366 91.7092 94.2294 91.5814 94.7379 91.0409C95.0836 90.6735 95.3666 90.2738 95.3666 90.1528C95.3666 90.0317 95.7325 90.3404 96.1794 90.8385C96.9005 91.6423 97.0837 91.7363 97.8022 91.673L98.6124 91.6016L97.5854 90.0455L96.5587 88.4894L95.5563 88.4857L94.5539 88.4821L93.43 90.0956ZM77.4243 93.1426C77.0331 93.3341 76.4966 93.7917 76.2322 94.1596L75.7515 94.8287V106.377C75.7515 117.78 75.7571 117.932 76.2077 118.532C77.0363 119.636 77.9455 120 79.8696 120C81.3129 120 81.7409 119.915 82.423 119.494C83.8776 118.597 84.096 117.849 84.096 113.77C84.096 111.812 84.044 110.211 83.9805 110.211C83.5921 110.211 81.6896 111.357 81.5029 111.703C81.3794 111.932 81.2784 113.175 81.2784 114.466C81.2784 117.092 81.0729 117.526 79.8319 117.526C78.4217 117.526 78.4607 117.846 78.4607 106.275C78.4607 96.1507 78.4744 95.8048 78.8799 95.5892C79.5314 95.243 80.5241 95.3263 80.9197 95.76C81.2201 96.0896 81.2784 96.6815 81.2784 99.4075V102.661L82.4154 102.138C84.1073 101.361 84.1323 101.296 84.0549 97.9093C83.9805 94.6536 83.839 94.2652 82.3643 93.2689C81.7648 92.8638 81.361 92.7857 79.8917 92.7898C78.7204 92.793 77.8987 92.9105 77.4243 93.1426ZM160.281 92.9923C159.667 93.2476 158.933 93.9806 158.544 94.7274C158.254 95.2831 158.218 96.8426 158.27 106.646C158.329 117.729 158.338 117.936 158.787 118.532C159.644 119.673 160.507 120 162.665 119.999C164.881 119.998 165.67 119.7 166.495 118.551L167 117.849V106.408C167 95.1372 166.993 94.9588 166.547 94.3603C165.594 93.0845 164.85 92.7836 162.687 92.7984C161.602 92.8059 160.519 92.8933 160.281 92.9923ZM0 106.188C0 116.158 0.0634949 119.439 0.26008 119.634C0.40313 119.776 1.0371 119.892 1.66891 119.892H2.81765V106.704C2.81765 96.7339 2.75416 93.4533 2.55757 93.2582C2.41452 93.1162 1.78055 93 1.14875 93H0V106.188ZM11.7041 106.446V119.892H13.1129H14.5217L14.5369 112.524L14.5519 105.155L16.1291 112.023C17.5631 118.266 17.7596 118.935 18.2935 119.391C18.7181 119.753 19.1477 119.892 19.8441 119.892H20.8073V106.446V93H19.3984H17.9896L17.9749 100.369C17.966 104.842 17.8849 107.568 17.7683 107.307C17.6626 107.07 16.9766 103.972 16.2437 100.422C15.5109 96.8725 14.7727 93.7502 14.6032 93.4841C14.3397 93.0701 14.1071 93 12.9996 93H11.7041V106.446ZM27.0206 93.1435C26.9411 93.2222 26.8761 93.8031 26.8761 94.4343V95.5817H28.8267H30.7774V107.479C30.7774 116.445 30.8416 119.44 31.0375 119.634C31.1805 119.776 31.8145 119.892 32.4463 119.892H33.5951V107.978C33.5951 98.4779 33.6521 96.0178 33.8762 95.833C34.0309 95.7056 34.933 95.5726 35.8811 95.5378L37.6046 95.4741L38.1956 94.3984C38.5207 93.8068 38.7891 93.25 38.7919 93.1614C38.798 92.9619 27.2211 92.9445 27.0206 93.1435ZM44.223 93.4161C44.0754 93.6899 43.9987 98.2918 43.9987 106.862V119.892H47.3725C49.3182 119.892 50.9264 119.797 51.1722 119.666C51.6835 119.395 52.8851 117.795 52.8851 117.386C52.8851 117.156 52.2536 117.096 49.8507 117.096H46.8164V112.263C46.8164 107.666 46.8374 107.418 47.2453 107.202C47.4813 107.076 47.8996 107.03 48.1751 107.098C49.1557 107.343 50.2333 106.631 51.0894 105.173C51.2342 104.927 51.356 104.652 51.3604 104.564C51.3645 104.475 50.3438 104.402 49.0921 104.402H46.8164V100.25C46.8164 97.3075 46.8922 96.0227 47.0764 95.8398C47.2331 95.6843 47.9922 95.5817 48.9866 95.5817C50.509 95.5817 50.6791 95.5359 51.1859 94.99C51.8348 94.2908 52.4517 93.4025 52.4517 93.1672C52.4517 93.0753 50.6508 93 48.4495 93C44.7146 93 44.4324 93.0277 44.223 93.4161ZM58.3037 106.431V119.892H59.7125H61.1214V114.084V108.275H62.1637C64.0907 108.275 64.0383 108.11 64.112 114.389L64.1765 119.892H65.5908H67.0048L66.935 114.137C66.8674 108.586 66.8475 108.355 66.3719 107.595C66.0811 107.131 65.9731 106.777 66.1088 106.732C66.2354 106.69 66.4773 106.27 66.6465 105.798C67.0046 104.8 67.0963 96.9048 66.7662 95.4924C66.6498 94.9943 66.2519 94.3347 65.793 93.8788L65.0167 93.1076L61.6602 93.0387L58.3037 92.9697V106.431ZM94.0582 93.2689C94.0538 93.4169 93.1461 99.4677 92.041 106.715L90.0317 119.892H91.5663H93.1008L94.2597 110.91C94.8972 105.97 95.444 101.9 95.475 101.864C95.5739 101.752 95.7639 103.056 96.7696 110.749C97.3111 114.89 97.8106 118.642 97.8798 119.086L98.0057 119.892H99.5038C100.328 119.892 101.002 119.841 101.002 119.778C101.002 119.122 97.0488 93.8438 96.8901 93.4841C96.7024 93.0592 96.5169 93 95.3712 93C94.4761 93 94.0636 93.0843 94.0582 93.2689ZM108.371 106.446V119.892H109.777H111.183L111.24 113.28L111.297 106.667L112.115 110.322C112.848 113.6 112.999 114.037 113.581 114.568C114.01 114.958 114.468 115.159 114.931 115.159H115.632L116.642 110.803L117.653 106.446L117.672 113.169L117.691 119.892H119.1H120.509V106.446V93H119.221C118.466 93 117.868 93.105 117.775 93.2539C117.689 93.3935 116.917 96.9997 116.061 101.268C115.204 105.536 114.447 108.883 114.378 108.705C114.309 108.528 113.565 105.054 112.724 100.986C111.883 96.9175 111.084 93.4563 110.948 93.2945C110.796 93.1121 110.259 93 109.537 93H108.371V106.446ZM129.395 106.466V119.933L132.523 119.859C135.982 119.777 136.349 119.649 137.36 118.173C137.831 117.487 137.848 117.291 137.848 112.529V107.596L137.215 106.967L136.581 106.339L137.215 105.71L137.848 105.081L137.847 100.17C137.847 95.649 137.812 95.2032 137.416 94.5578C136.584 93.2035 135.945 93.0017 132.484 93.0009L129.395 93V106.466ZM146.735 106.316C146.735 121.22 146.574 119.892 148.378 119.892H149.335V106.787C149.335 99.5783 149.276 93.5275 149.204 93.3404C149.106 93.0882 148.769 93 147.903 93H146.735V106.316ZM163.857 95.5817C164.279 96.0001 164.291 96.2987 164.291 106.375C164.291 118.048 164.365 117.526 162.703 117.526C160.947 117.526 161.04 118.144 161.04 106.413C161.04 96.2987 161.052 96.0001 161.473 95.5817C161.741 95.3153 162.195 95.1514 162.665 95.1514C163.135 95.1514 163.589 95.3153 163.857 95.5817ZM63.3922 95.8336C63.6986 95.9724 64.0021 96.294 64.0665 96.5483C64.1308 96.8028 64.1527 98.8273 64.1154 101.047C64.0374 105.669 64.0272 105.693 62.1637 105.693H61.1214V100.637V95.5817H61.9781C62.4493 95.5817 63.0857 95.6951 63.3922 95.8336ZM134.627 95.9932C135.132 96.399 135.139 96.4597 135.139 100.421C135.139 105.027 135.13 105.048 133.255 105.048H132.213V100.315V95.5817H133.164C133.778 95.5817 134.297 95.7275 134.627 95.9932ZM134.726 108.083C135.101 108.493 135.139 108.903 135.139 112.482C135.139 115.292 135.063 116.504 134.876 116.69C134.731 116.834 134.073 116.996 133.413 117.05L132.213 117.149V112.389V107.629H133.263C134.056 107.629 134.414 107.741 134.726 108.083Z" fill="#FFB030"/>
</svg>
