<svg width="54" height="60" viewBox="0 0 54 60" fill="none" xmlns="http://www.w3.org/2000/svg">
<path d="M48 6H35.46C34.2 2.52 30.9 0 27 0C23.1 0 19.8 2.52 18.54 6H6C2.7 6 0 8.7 0 12V54C0 57.3 2.7 60 6 60H48C51.3 60 54 57.3 54 54V12C54 8.7 51.3 6 48 6ZM27 6C28.65 6 30 7.35 30 9C30 10.65 28.65 12 27 12C25.35 12 24 10.65 24 9C24 7.35 25.35 6 27 6ZM30 48H15C13.35 48 12 46.65 12 45C12 43.35 13.35 42 15 42H30C31.65 42 33 43.35 33 45C33 46.65 31.65 48 30 48ZM39 36H15C13.35 36 12 34.65 12 33C12 31.35 13.35 30 15 30H39C40.65 30 42 31.35 42 33C42 34.65 40.65 36 39 36ZM39 24H15C13.35 24 12 22.65 12 21C12 19.35 13.35 18 15 18H39C40.65 18 42 19.35 42 21C42 22.65 40.65 24 39 24Z" fill="#FF6A2E"/>
</svg>
