<svg width="66" height="64" viewBox="0 0 66 64" fill="none" xmlns="http://www.w3.org/2000/svg">
<path d="M66 32L58.68 23.63L59.7 12.56L48.87 10.1L43.2 0.5L33 4.88L22.8 0.5L17.13 10.07L6.3 12.5L7.32 23.6L0 32L7.32 40.37L6.3 51.47L17.13 53.93L22.8 63.5L33 59.09L43.2 63.47L48.87 53.9L59.7 51.44L58.68 40.37L66 32ZM25.14 44.03L18 36.83C16.83 35.66 16.83 33.77 18 32.6L18.21 32.39C19.38 31.22 21.3 31.22 22.47 32.39L27.3 37.25L42.75 21.77C43.92 20.6 45.84 20.6 47.01 21.77L47.22 21.98C48.39 23.15 48.39 25.04 47.22 26.21L29.46 44.03C28.23 45.2 26.34 45.2 25.14 44.03Z" fill="#FF6A2E"/>
</svg>
