<svg width="54" height="57" viewBox="0 0 54 57" fill="none" xmlns="http://www.w3.org/2000/svg">
<path d="M36 26.0014V10.4914C36 8.90141 35.37 7.37141 34.23 6.26141L29.1 1.13141C27.93 -0.0385937 26.04 -0.0385937 24.87 1.13141L19.77 6.23141C18.63 7.37141 18 8.90141 18 10.4914V14.0014H6C2.7 14.0014 0 16.7014 0 20.0014V50.0014C0 53.3014 2.7 56.0014 6 56.0014H48C51.3 56.0014 54 53.3014 54 50.0014V32.0014C54 28.7014 51.3 26.0014 48 26.0014H36ZM12 50.0014H6V44.0014H12V50.0014ZM12 38.0014H6V32.0014H12V38.0014ZM12 26.0014H6V20.0014H12V26.0014ZM30 50.0014H24V44.0014H30V50.0014ZM30 38.0014H24V32.0014H30V38.0014ZM30 26.0014H24V20.0014H30V26.0014ZM30 14.0014H24V8.00141H30V14.0014ZM48 50.0014H42V44.0014H48V50.0014ZM48 38.0014H42V32.0014H48V38.0014Z" fill="#FF6A2E"/>
</svg>
