<svg width="72" height="36" viewBox="0 0 72 36" fill="none" xmlns="http://www.w3.org/2000/svg">
<path d="M36 20.25C40.89 20.25 45.21 21.42 48.72 22.95C51.96 24.39 54 27.63 54 31.14V33C54 34.65 52.65 36 51 36H21C19.35 36 18 34.65 18 33V31.17C18 27.63 20.04 24.39 23.28 22.98C26.79 21.42 31.11 20.25 36 20.25ZM12 21C15.3 21 18 18.3 18 15C18 11.7 15.3 9 12 9C8.7 9 6 11.7 6 15C6 18.3 8.7 21 12 21ZM15.39 24.3C14.28 24.12 13.17 24 12 24C9.03 24 6.21 24.63 3.66 25.74C1.44 26.7 0 28.86 0 31.29V33C0 34.65 1.35 36 3 36H13.5V31.17C13.5 28.68 14.19 26.34 15.39 24.3ZM60 21C63.3 21 66 18.3 66 15C66 11.7 63.3 9 60 9C56.7 9 54 11.7 54 15C54 18.3 56.7 21 60 21ZM72 31.29C72 28.86 70.56 26.7 68.34 25.74C65.79 24.63 62.97 24 60 24C58.83 24 57.72 24.12 56.61 24.3C57.81 26.34 58.5 28.68 58.5 31.17V36H69C70.65 36 72 34.65 72 33V31.29ZM36 0C40.98 0 45 4.02 45 9C45 13.98 40.98 18 36 18C31.02 18 27 13.98 27 9C27 4.02 31.02 0 36 0Z" fill="#FF6A2E"/>
</svg>
