<svg width="88" height="80" viewBox="0 0 88 80" fill="none" xmlns="http://www.w3.org/2000/svg">
<g filter="url(#filter0_d_741_2948)">
<path d="M36 52V48H8.04L8 64C8 68.44 11.56 72 16 72H72C76.44 72 80 68.44 80 64V48H52V52H36ZM76 16H59.96V8L51.96 0H35.96L27.96 8V16H12C7.6 16 4 19.6 4 24V36C4 40.44 7.56 44 12 44H36V36H52V44H76C80.4 44 84 40.4 84 36V24C84 19.6 80.4 16 76 16ZM52 16H36V8H52V16Z" fill="white"/>
</g>
<defs>
<filter id="filter0_d_741_2948" x="0" y="0" width="88" height="80" filterUnits="userSpaceOnUse" color-interpolation-filters="sRGB">
<feFlood flood-opacity="0" result="BackgroundImageFix"/>
<feColorMatrix in="SourceAlpha" type="matrix" values="0 0 0 0 0 0 0 0 0 0 0 0 0 0 0 0 0 0 127 0" result="hardAlpha"/>
<feOffset dy="4"/>
<feGaussianBlur stdDeviation="2"/>
<feComposite in2="hardAlpha" operator="out"/>
<feColorMatrix type="matrix" values="0 0 0 0 0 0 0 0 0 0 0 0 0 0 0 0 0 0 0.25 0"/>
<feBlend mode="normal" in2="BackgroundImageFix" result="effect1_dropShadow_741_2948"/>
<feBlend mode="normal" in="SourceGraphic" in2="effect1_dropShadow_741_2948" result="shape"/>
</filter>
</defs>
</svg>
