<svg width="83" height="80" viewBox="0 0 83 80" fill="none" xmlns="http://www.w3.org/2000/svg">
<g filter="url(#filter0_d_741_2938)">
<path fill-rule="evenodd" clip-rule="evenodd" d="M38.375 4.69565V9.3913H41.5H44.625V4.69565V0H41.5H38.375V4.69565ZM62.9656 12.5413L59.918 15.6678L61.6359 17.3888L63.3547 19.1097L66.0992 16.445C69.218 13.417 69.4273 12.5108 67.4281 10.6983C66.0992 9.49383 65.8266 9.60652 62.9656 12.5413ZM15.2992 11.7712C13.8828 13.3388 13.9094 13.4225 16.7359 16.254L19.6164 19.1395L21.3461 17.406L23.0766 15.6725L20.4164 12.9232C18.9531 11.4112 17.5281 10.1739 17.2492 10.1739C16.9703 10.1739 16.093 10.8931 15.2992 11.7712ZM32.5156 18.2763C24.3969 22.0711 20.0047 29.6617 20.5305 38.9872C20.8969 45.4797 23.6758 50.663 28.7812 54.3764C31.8672 56.621 32.032 56.9457 32.0773 60.8729C32.1664 68.6152 35.0336 72 41.5 72C47.9664 72 50.8336 68.6152 50.9227 60.8729C50.968 56.9457 51.1328 56.621 54.2188 54.3764C59.3242 50.663 62.1031 45.4797 62.4695 38.9872C63.1961 26.1047 54.2125 16.4504 41.5 16.4504C37.8172 16.4504 35.3484 16.9521 32.5156 18.2763ZM4 37.5652V40.6957H8.6875H13.375V37.5652V34.4348H8.6875H4V37.5652ZM69.625 37.5652V40.6957H74.3125H79V37.5652V34.4348H74.3125H69.625V37.5652ZM16.4898 59.0971L13.8297 61.8464L15.5602 63.5799L17.2898 65.3134L20.1703 62.4279C22.9969 59.5964 23.0234 59.5127 21.607 57.9451C20.8133 57.067 19.9359 56.3478 19.657 56.3478C19.3781 56.3478 17.9531 57.5851 16.4898 59.0971ZM61.4039 57.9326C60.0016 59.4853 60.0352 59.5831 62.9922 62.6165C65.8273 65.5255 66.0992 65.6366 67.4281 64.4322C68.207 63.7263 68.8438 62.7441 68.8438 62.2495C68.8438 61.3659 64.0992 56.3478 63.2633 56.3478C63.0281 56.3478 62.1914 57.0608 61.4039 57.9326Z" fill="white"/>
</g>
<defs>
<filter id="filter0_d_741_2938" x="0" y="0" width="83" height="80" filterUnits="userSpaceOnUse" color-interpolation-filters="sRGB">
<feFlood flood-opacity="0" result="BackgroundImageFix"/>
<feColorMatrix in="SourceAlpha" type="matrix" values="0 0 0 0 0 0 0 0 0 0 0 0 0 0 0 0 0 0 127 0" result="hardAlpha"/>
<feOffset dy="4"/>
<feGaussianBlur stdDeviation="2"/>
<feComposite in2="hardAlpha" operator="out"/>
<feColorMatrix type="matrix" values="0 0 0 0 0 0 0 0 0 0 0 0 0 0 0 0 0 0 0.25 0"/>
<feBlend mode="normal" in2="BackgroundImageFix" result="effect1_dropShadow_741_2938"/>
<feBlend mode="normal" in="SourceGraphic" in2="effect1_dropShadow_741_2938" result="shape"/>
</filter>
</defs>
</svg>
