<svg width="80" height="80" viewBox="0 0 80 80" fill="none" xmlns="http://www.w3.org/2000/svg">
<g filter="url(#filter0_d_741_2943)">
<path d="M40 0C20.128 0 4 16.128 4 36C4 55.872 20.128 72 40 72C59.872 72 76 55.872 76 36C76 16.128 59.872 0 40 0ZM36.4 64.548C22.18 62.784 11.2 50.688 11.2 36C11.2 33.768 11.488 31.644 11.956 29.556L29.2 46.8V50.4C29.2 54.36 32.44 57.6 36.4 57.6V64.548ZM61.24 55.404C60.304 52.488 57.64 50.4 54.4 50.4H50.8V39.6C50.8 37.62 49.18 36 47.2 36H25.6V28.8H32.8C34.78 28.8 36.4 27.18 36.4 25.2V18H43.6C47.56 18 50.8 14.76 50.8 10.8V9.324C61.348 13.608 68.8 23.94 68.8 36C68.8 43.488 65.92 50.292 61.24 55.404Z" fill="white"/>
</g>
<defs>
<filter id="filter0_d_741_2943" x="0" y="0" width="80" height="80" filterUnits="userSpaceOnUse" color-interpolation-filters="sRGB">
<feFlood flood-opacity="0" result="BackgroundImageFix"/>
<feColorMatrix in="SourceAlpha" type="matrix" values="0 0 0 0 0 0 0 0 0 0 0 0 0 0 0 0 0 0 127 0" result="hardAlpha"/>
<feOffset dy="4"/>
<feGaussianBlur stdDeviation="2"/>
<feComposite in2="hardAlpha" operator="out"/>
<feColorMatrix type="matrix" values="0 0 0 0 0 0 0 0 0 0 0 0 0 0 0 0 0 0 0.25 0"/>
<feBlend mode="normal" in2="BackgroundImageFix" result="effect1_dropShadow_741_2943"/>
<feBlend mode="normal" in="SourceGraphic" in2="effect1_dropShadow_741_2943" result="shape"/>
</filter>
</defs>
</svg>
