<svg width="60" height="48" viewBox="0 0 60 48" fill="none" xmlns="http://www.w3.org/2000/svg">
<path d="M45 48C46.65 48 48 46.65 48 45V14.28C48 13.47 47.67 12.72 47.13 12.15L35.85 0.87C35.28 0.33 34.53 0 33.72 0C31.05 0 29.7 3.24 31.59 5.13L41.55 15.09C41.85 15.36 42 15.75 42 16.14V45C42 46.65 43.35 48 45 48ZM57 48C58.65 48 60 46.65 60 45V9.33C60 8.55 59.67 7.77 59.13 7.2L52.83 0.87C52.26 0.33 51.48 0 50.7 0C48 0 46.68 3.24 48.57 5.13L53.58 10.14C53.85 10.41 54 10.8 54 11.19V45C54 46.65 55.35 48 57 48ZM18 33C19.65 33 21 34.35 21 36V48H33C34.65 48 36 46.65 36 45V19.23C36 18.42 35.67 17.67 35.13 17.1L20.13 2.1C18.96 0.929999 17.07 0.929999 15.9 2.1L0.9 17.1C0.33 17.67 0 18.45 0 19.23V45C0 46.65 1.35 48 3 48H15V36C15 34.35 16.35 33 18 33ZM18 27C16.35 27 15 25.65 15 24C15 22.35 16.35 21 18 21C19.65 21 21 22.35 21 24C21 25.65 19.65 27 18 27Z" fill="white"/>
</svg>
