<svg width="76.48" height="79.54" viewBox="0 0 85 88" fill="none" xmlns="http://www.w3.org/2000/svg">
<g filter="url(#filter0_d_621_1480)">
<path d="M25.44 44.7149L36.76 32.3168L8.68 1.6063C2.44 8.44059 2.44 19.5244 8.68 26.4025L25.44 44.7149ZM52.56 36.7854C58.68 39.8958 67.28 37.7053 73.64 30.7396C81.28 22.372 82.76 10.3682 76.88 3.92821C71.04 -2.46798 60.08 -0.890837 52.4 7.47678C46.04 14.4425 44.04 23.8615 46.88 30.5644L7.84 73.3225L13.48 79.4996L41.04 49.4025L68.56 79.5435L74.2 73.3663L46.68 43.2253L52.56 36.7854Z" fill="#FFB030"/>
</g>
<defs>
<filter id="filter0_d_621_1480" x="0" y="0" width="84.4839" height="87.5435" filterUnits="userSpaceOnUse" color-interpolation-filters="sRGB">
<feFlood flood-opacity="0" result="BackgroundImageFix"/>
<feColorMatrix in="SourceAlpha" type="matrix" values="0 0 0 0 0 0 0 0 0 0 0 0 0 0 0 0 0 0 127 0" result="hardAlpha"/>
<feOffset dy="4"/>
<feGaussianBlur stdDeviation="2"/>
<feComposite in2="hardAlpha" operator="out"/>
<feColorMatrix type="matrix" values="0 0 0 0 0 0 0 0 0 0 0 0 0 0 0 0 0 0 0.25 0"/>
<feBlend mode="normal" in2="BackgroundImageFix" result="effect1_dropShadow_621_1480"/>
<feBlend mode="normal" in="SourceGraphic" in2="effect1_dropShadow_621_1480" result="shape"/>
</filter>
</defs>
</svg>
