<svg width="105" height="88" viewBox="0 0 105 88" fill="none" xmlns="http://www.w3.org/2000/svg">
<path d="M14.9999 49.8999V63.9499C14.9999 67.5999 16.9999 70.9999 20.1999 72.7499L45.1999 86.3999C48.1999 88.0499 51.7999 88.0499 54.7999 86.3999L79.7999 72.7499C82.9999 70.9999 84.9999 67.5999 84.9999 63.9499V49.8999L54.7999 66.3999C51.7999 68.0499 48.1999 68.0499 45.1999 66.3999L14.9999 49.8999ZM45.1999 1.5999L3.0499 24.5999C-0.400098 26.4999 -0.400098 31.4999 3.0499 33.3999L45.1999 56.3999C48.1999 58.0499 51.7999 58.0499 54.7999 56.3999L94.9999 34.4499V63.9999C94.9999 66.7499 97.2499 68.9999 99.9999 68.9999C102.75 68.9999 105 66.7499 105 63.9999V31.9499C105 30.0999 104 28.4499 102.4 27.5499L54.7999 1.5999C51.7999 -9.76473e-05 48.1999 -9.76473e-05 45.1999 1.5999V1.5999Z" fill="#7B39E9"/>
</svg>
