<svg width="66" height="54" viewBox="0 0 66 54" fill="none" xmlns="http://www.w3.org/2000/svg">
<path d="M36 45C36 43.35 34.65 42 33 42H6V24H60V6C60 2.7 57.3 0 54 0H6C2.67 0 0.03 2.67 0.03 6L0 42C0 45.33 2.67 48 6 48H33C34.65 48 36 46.65 36 45ZM54 12H6V6H54V12ZM54 54C52.35 54 51 52.65 51 51V45H45C43.35 45 42 43.65 42 42C42 40.35 43.35 39 45 39H51V33C51 31.35 52.35 30 54 30C55.65 30 57 31.35 57 33V39H63C64.65 39 66 40.35 66 42C66 43.65 64.65 45 63 45H57V51C57 52.65 55.65 54 54 54Z" fill="white"/>
</svg>
