<svg width="63" height="62" viewBox="0 0 63 62" fill="none" xmlns="http://www.w3.org/2000/svg">
<path d="M60.5707 56.5702L5.43066 1.43023C4.26066 0.260234 2.37066 0.260234 1.20066 1.43023C0.000660598 2.60023 0.000660688 4.49023 1.17066 5.66023L3.69066 8.18024C3.27066 9.02024 3.03066 9.98024 3.03066 11.0002L3.00066 47.0002C3.00066 50.3302 5.67066 53.0002 9.00066 53.0002H48.5107L56.3407 60.8302C57.5107 62.0002 59.4007 62.0002 60.5707 60.8302C61.7407 59.6602 61.7407 57.7402 60.5707 56.5702ZM9.00066 29.0002V17.0002H12.5107L24.5107 29.0002H9.00066ZM17.4907 5.00023H57.0007C60.3307 5.00023 63.0007 7.67024 63.0007 11.0002V47.0002C63.0007 48.0202 62.7607 48.9802 62.3107 49.8202L41.4907 29.0002H57.0007V17.0002H29.4907L17.4907 5.00023Z" fill="white"/>
</svg>
