<svg width="61" height="61" viewBox="0 0 61 61" fill="none" xmlns="http://www.w3.org/2000/svg">
<path d="M30.5371 0.0771484C13.7224 0.0771484 0.0756836 13.7238 0.0756836 30.5385C0.0756836 47.3532 13.7224 60.9999 30.5371 60.9999C47.3517 60.9999 60.9984 47.3532 60.9984 30.5385C60.9984 13.7238 47.3517 0.0771484 30.5371 0.0771484ZM33.2177 48.0843V49.1809C33.2177 50.643 32.0297 51.8615 30.5371 51.8615C29.0749 51.8615 27.8565 50.6735 27.8565 49.1809V47.9015C25.9374 47.4446 21.9774 46.0434 19.6624 41.5046C18.9617 40.1643 19.6319 38.4889 21.0331 37.9102L21.2463 37.8188C22.4953 37.301 23.8965 37.8188 24.5362 39.0068C25.5109 40.8649 27.43 43.18 30.994 43.18C33.8269 43.18 37.0253 41.7179 37.0253 38.2757C37.0253 35.3514 34.893 33.8284 30.0801 32.0921C26.7294 30.9041 19.8756 28.9545 19.8756 22.0093C19.8756 21.7047 19.906 14.6986 27.8565 12.9928V11.8962C27.8565 10.4036 29.0749 9.21556 30.5371 9.21556C31.9992 9.21556 33.2177 10.4036 33.2177 11.8962V13.0232C36.477 13.602 38.5484 15.3383 39.7973 16.9832C40.833 18.3235 40.2847 20.273 38.7007 20.9432C37.6041 21.4001 36.3247 21.0346 35.5937 20.0903C34.7407 18.9327 33.2177 17.7447 30.7198 17.7447C28.5875 17.7447 25.2063 18.8718 25.2063 21.9789C25.2063 24.8727 27.826 25.9693 33.2481 27.7665C40.5589 30.2948 42.417 34.0111 42.417 38.2757C42.417 46.2871 34.8017 47.8101 33.2177 48.0843Z" fill="#FFB030"/>
</svg>
