<svg width="60" height="60" viewBox="0 0 60 60" fill="none" xmlns="http://www.w3.org/2000/svg">
<path d="M29.97 0C13.41 0 0 13.44 0 30C0 46.56 13.41 60 29.97 60C46.56 60 60 46.56 60 30C60 13.44 46.56 0 29.97 0ZM30 54C16.74 54 6 43.26 6 30C6 16.74 16.74 6 30 6C43.26 6 54 16.74 54 30C54 43.26 43.26 54 30 54ZM29.34 15H29.16C27.96 15 27 15.96 27 17.16V31.32C27 32.37 27.54 33.36 28.47 33.9L40.92 41.37C41.94 41.97 43.26 41.67 43.86 40.65C44.49 39.63 44.16 38.28 43.11 37.68L31.5 30.78V17.16C31.5 15.96 30.54 15 29.34 15Z" fill="#FFB030"/>
</svg>
