<svg width="64" height="54" viewBox="0 0 64 54" fill="none" xmlns="http://www.w3.org/2000/svg">
<path d="M0.829997 27.57C1.85 28.89 3.71 29.13 5.03 28.14L8 25.86V51C8 52.65 9.35 54 11 54H53C54.65 54 56 52.65 56 51V25.86L58.97 28.14C60.29 29.16 62.18 28.89 63.17 27.57C64.19 26.25 63.92 24.36 62.6 23.37L33.8 1.37996C32.72 0.569961 31.22 0.569961 30.17 1.37996L1.37 23.37C0.0799964 24.39 -0.190003 26.28 0.829997 27.57ZM20 36C18.35 36 17 34.65 17 33C17 31.35 18.35 30 20 30C21.65 30 23 31.35 23 33C23 34.65 21.65 36 20 36ZM32 36C30.35 36 29 34.65 29 33C29 31.35 30.35 30 32 30C33.65 30 35 31.35 35 33C35 34.65 33.65 36 32 36ZM44 36C42.35 36 41 34.65 41 33C41 31.35 42.35 30 44 30C45.65 30 47 31.35 47 33C47 34.65 45.65 36 44 36Z" fill="white"/>
</svg>
