<svg width="54" height="54" viewBox="0 0 54 54" fill="none" xmlns="http://www.w3.org/2000/svg">
<path d="M42 24V6C42 2.7 39.3 0 36 0H18C14.7 0 12 2.7 12 6V12H6C2.7 12 0 14.7 0 18V48C0 51.3 2.7 54 6 54H21C22.65 54 24 52.65 24 51V42H30V51C30 52.65 31.35 54 33 54H48C51.3 54 54 51.3 54 48V30C54 26.7 51.3 24 48 24H42ZM12 48H6V42H12V48ZM12 36H6V30H12V36ZM12 24H6V18H12V24ZM24 36H18V30H24V36ZM24 24H18V18H24V24ZM24 12H18V6H24V12ZM36 36H30V30H36V36ZM36 24H30V18H36V24ZM36 12H30V6H36V12ZM48 48H42V42H48V48ZM48 36H42V30H48V36Z" fill="white"/>
</svg>
