<svg width="84" height="83" viewBox="0 0 84 83" fill="none" xmlns="http://www.w3.org/2000/svg">
<g filter="url(#filter0_d_621_1461)">
<path d="M32 74.4762C33.1046 74.4762 34 73.5808 34 72.4762V50.1905C34 49.0859 34.8954 48.1905 36 48.1905H48C49.1046 48.1905 50 49.0859 50 50.1905V72.4762C50 73.5808 50.8954 74.4762 52 74.4762H68C69.1046 74.4762 70 73.5808 70 72.4762V41.4286C70 40.324 70.8954 39.4286 72 39.4286H77.122C78.9108 39.4286 79.7999 37.2599 78.526 36.0042L43.404 1.38395C42.6253 0.616415 41.3747 0.616414 40.596 1.38395L5.47398 36.0042C4.20008 37.2599 5.08923 39.4286 6.87798 39.4286H12C13.1046 39.4286 14 40.324 14 41.4286V72.4762C14 73.5808 14.8954 74.4762 16 74.4762H32Z" fill="#FFB030"/>
</g>
<defs>
<filter id="filter0_d_621_1461" x="0.874023" y="0.808105" width="82.252" height="81.668" filterUnits="userSpaceOnUse" color-interpolation-filters="sRGB">
<feFlood flood-opacity="0" result="BackgroundImageFix"/>
<feColorMatrix in="SourceAlpha" type="matrix" values="0 0 0 0 0 0 0 0 0 0 0 0 0 0 0 0 0 0 127 0" result="hardAlpha"/>
<feOffset dy="4"/>
<feGaussianBlur stdDeviation="2"/>
<feComposite in2="hardAlpha" operator="out"/>
<feColorMatrix type="matrix" values="0 0 0 0 0 0 0 0 0 0 0 0 0 0 0 0 0 0 0.25 0"/>
<feBlend mode="normal" in2="BackgroundImageFix" result="effect1_dropShadow_621_1461"/>
<feBlend mode="normal" in="SourceGraphic" in2="effect1_dropShadow_621_1461" result="shape"/>
</filter>
</defs>
</svg>
