<svg width="54" height="48" viewBox="0 0 54 48" fill="none" xmlns="http://www.w3.org/2000/svg">
<path d="M54 30C54 28.35 52.65 27 51 27H45V33H51C52.65 33 54 31.65 54 30Z" fill="#FFB030"/>
<path d="M51 39H45V45H51C52.65 45 54 43.65 54 42C54 40.35 52.65 39 51 39Z" fill="#FFB030"/>
<path d="M39 24H33C29.7 24 27 26.7 27 30H24C22.35 30 21 31.35 21 33V39C21 40.65 22.35 42 24 42H27C27 45.3 29.7 48 33 48H39C40.65 48 42 46.65 42 45V27C42 25.35 40.65 24 39 24Z" fill="#FFB030"/>
<path d="M6 27C6 23.7 8.7 21 12 21H16.5C22.29 21 27 16.29 27 10.5C27 4.71 22.29 0 16.5 0H6C4.35 0 3 1.35 3 3C3 4.65 4.35 6 6 6H16.5C18.99 6 21 8.01 21 10.5C21 12.99 18.99 15 16.5 15H12C5.37 15 0 20.37 0 27C0 33.63 5.37 39 12 39H18V33H12C8.7 33 6 30.3 6 27Z" fill="#FFB030"/>
</svg>
