<svg width="17" height="20" viewBox="0 0 17 20" fill="none" xmlns="http://www.w3.org/2000/svg">
<path d="M8.654 0C4.57515 0 0.884766 3.22 0.884766 8.2C0.884766 11.38 3.26409 15.12 8.01304 19.43C8.38207 19.76 8.93563 19.76 9.30467 19.43C14.0439 15.12 16.4232 11.38 16.4232 8.2C16.4232 3.22 12.7328 0 8.654 0ZM8.654 10C7.58573 10 6.71169 9.1 6.71169 8C6.71169 6.9 7.58573 6 8.654 6C9.72227 6 10.5963 6.9 10.5963 8C10.5963 9.1 9.72227 10 8.654 10Z" fill="#1F1F1F"/>
<path d="M8.654 0C4.57515 0 0.884766 3.22 0.884766 8.2C0.884766 11.38 3.26409 15.12 8.01304 19.43C8.38207 19.76 8.93563 19.76 9.30467 19.43C14.0439 15.12 16.4232 11.38 16.4232 8.2C16.4232 3.22 12.7328 0 8.654 0ZM8.654 10C7.58573 10 6.71169 9.1 6.71169 8C6.71169 6.9 7.58573 6 8.654 6C9.72227 6 10.5963 6.9 10.5963 8C10.5963 9.1 9.72227 10 8.654 10Z" fill="black" fill-opacity="0.2"/>
</svg>
