<svg width="72" height="72" viewBox="0 0 72 72" fill="none" xmlns="http://www.w3.org/2000/svg">
<path d="M63 36.66C63 20.19 50.22 9 36 9C21.93 9 9 19.95 9 36.84C7.2 37.86 6 39.78 6 42V48C6 51.3 8.7 54 12 54C13.65 54 15 52.65 15 51V36.57C15 25.08 23.85 15.03 35.34 14.7C47.22 14.34 57 23.88 57 35.7V57H36C34.35 57 33 58.35 33 60C33 61.65 34.35 63 36 63H57C60.3 63 63 60.3 63 57V53.34C64.77 52.41 66 50.58 66 48.42V41.52C66 39.42 64.77 37.59 63 36.66Z" fill="#FF6A2E"/>
<path d="M27 42C28.6569 42 30 40.6569 30 39C30 37.3431 28.6569 36 27 36C25.3431 36 24 37.3431 24 39C24 40.6569 25.3431 42 27 42Z" fill="#FF6A2E"/>
<path d="M45 42C46.6569 42 48 40.6569 48 39C48 37.3431 46.6569 36 45 36C43.3431 36 42 37.3431 42 39C42 40.6569 43.3431 42 45 42Z" fill="#FF6A2E"/>
<path d="M54 33.09C52.56 24.54 45.12 18 36.15 18C27.06 18 17.28 25.53 18.06 37.35C25.47 34.32 31.05 27.72 32.64 19.68C36.57 27.57 44.64 33 54 33.09Z" fill="#FF6A2E"/>
</svg>
