<svg width="60" height="51" viewBox="0 0 60 51" fill="none" xmlns="http://www.w3.org/2000/svg">
<path d="M26.01 27.06C25.35 27.03 24.69 27 24 27C16.74 27 9.96 29.01 4.17 32.46C1.53 34.02 0 36.96 0 40.05V45C0 46.65 1.35 48 3 48H27.78C25.41 44.61 24 40.47 24 36C24 32.79 24.75 29.79 26.01 27.06Z" fill="#FF6A2E"/>
<path d="M24 24C30.6274 24 36 18.6274 36 12C36 5.37258 30.6274 0 24 0C17.3726 0 12 5.37258 12 12C12 18.6274 17.3726 24 24 24Z" fill="#FF6A2E"/>
<path d="M56.25 35.9998C56.25 35.3398 56.16 34.7398 56.07 34.1098L58.59 31.9198C59.13 31.4398 59.25 30.6598 58.89 30.0298L57.12 26.9698C56.76 26.3398 56.01 26.0698 55.35 26.3098L52.17 27.3898C51.21 26.5798 50.13 25.9498 48.93 25.4998L48.27 22.2298C48.12 21.5398 47.52 21.0298 46.8 21.0298H43.26C42.54 21.0298 41.94 21.5398 41.79 22.2298L41.13 25.4998C39.93 25.9498 38.85 26.5798 37.89 27.3898L34.71 26.3098C34.02 26.0698 33.3 26.3698 32.94 26.9698L31.17 30.0298C30.81 30.6598 30.93 31.4398 31.47 31.9198L33.99 34.1098C33.9 34.7398 33.81 35.3398 33.81 35.9998C33.81 36.6598 33.9 37.2598 33.99 37.8898L31.47 40.0798C30.93 40.5598 30.81 41.3398 31.17 41.9698L32.94 45.0298C33.3 45.6598 34.05 45.9298 34.71 45.6898L37.89 44.6098C38.85 45.4198 39.93 46.0498 41.13 46.4998L41.79 49.7698C41.94 50.4598 42.54 50.9698 43.26 50.9698H46.8C47.52 50.9698 48.12 50.4598 48.27 49.7698L48.93 46.4998C50.13 46.0498 51.21 45.4198 52.17 44.6098L55.35 45.6898C56.04 45.9298 56.76 45.6298 57.12 45.0298L58.89 41.9698C59.25 41.3398 59.13 40.5598 58.59 40.0798L56.07 37.8898C56.16 37.2598 56.25 36.6598 56.25 35.9998ZM45 41.9998C41.7 41.9998 39 39.2998 39 35.9998C39 32.6998 41.7 29.9998 45 29.9998C48.3 29.9998 51 32.6998 51 35.9998C51 39.2998 48.3 41.9998 45 41.9998Z" fill="#FF6A2E"/>
</svg>
