<svg width="75" height="72" viewBox="0 0 75 72" fill="none" xmlns="http://www.w3.org/2000/svg">
<path fill-rule="evenodd" clip-rule="evenodd" d="M34.375 4.69565V9.3913H37.5H40.625V4.69565V0H37.5H34.375V4.69565ZM58.9656 12.5413L55.918 15.6678L57.6359 17.3888L59.3547 19.1097L62.0992 16.445C65.218 13.417 65.4273 12.5108 63.4281 10.6983C62.0992 9.49383 61.8266 9.60652 58.9656 12.5413ZM11.2992 11.7712C9.88281 13.3388 9.90937 13.4225 12.7359 16.254L15.6164 19.1395L17.3461 17.406L19.0766 15.6725L16.4164 12.9232C14.9531 11.4112 13.5281 10.1739 13.2492 10.1739C12.9703 10.1739 12.093 10.8931 11.2992 11.7712ZM28.5156 18.2763C20.3969 22.0711 16.0047 29.6617 16.5305 38.9872C16.8969 45.4797 19.6758 50.663 24.7812 54.3764C27.8672 56.621 28.032 56.9457 28.0773 60.8729C28.1664 68.6152 31.0336 72 37.5 72C43.9664 72 46.8336 68.6152 46.9227 60.8729C46.968 56.9457 47.1328 56.621 50.2188 54.3764C55.3242 50.663 58.1031 45.4797 58.4695 38.9872C59.1961 26.1047 50.2125 16.4504 37.5 16.4504C33.8172 16.4504 31.3484 16.9521 28.5156 18.2763ZM0 37.5652V40.6957H4.6875H9.375V37.5652V34.4348H4.6875H0V37.5652ZM65.625 37.5652V40.6957H70.3125H75V37.5652V34.4348H70.3125H65.625V37.5652ZM12.4898 59.0971L9.82969 61.8464L11.5602 63.5799L13.2898 65.3134L16.1703 62.4279C18.9969 59.5964 19.0234 59.5127 17.607 57.9451C16.8133 57.067 15.9359 56.3478 15.657 56.3478C15.3781 56.3478 13.9531 57.5851 12.4898 59.0971ZM57.4039 57.9326C56.0016 59.4853 56.0352 59.5831 58.9922 62.6165C61.8273 65.5255 62.0992 65.6366 63.4281 64.4322C64.207 63.7263 64.8438 62.7441 64.8438 62.2495C64.8438 61.3659 60.0992 56.3478 59.2633 56.3478C59.0281 56.3478 58.1914 57.0608 57.4039 57.9326Z" fill="white"/>
</svg>
