<svg width="72" height="72" viewBox="0 0 72 72" fill="none" xmlns="http://www.w3.org/2000/svg">
<path d="M36 0C16.128 0 0 16.128 0 36C0 55.872 16.128 72 36 72C55.872 72 72 55.872 72 36C72 16.128 55.872 0 36 0ZM32.4 64.548C18.18 62.784 7.2 50.688 7.2 36C7.2 33.768 7.488 31.644 7.956 29.556L25.2 46.8V50.4C25.2 54.36 28.44 57.6 32.4 57.6V64.548ZM57.24 55.404C56.304 52.488 53.64 50.4 50.4 50.4H46.8V39.6C46.8 37.62 45.18 36 43.2 36H21.6V28.8H28.8C30.78 28.8 32.4 27.18 32.4 25.2V18H39.6C43.56 18 46.8 14.76 46.8 10.8V9.324C57.348 13.608 64.8 23.94 64.8 36C64.8 43.488 61.92 50.292 57.24 55.404Z" fill="white"/>
</svg>
