<svg width="80" height="104" viewBox="0 0 80 104" fill="none" xmlns="http://www.w3.org/2000/svg">
<path d="M34.6 53.75L40 49.65L45.35 53.7C47.3 55.15 49.95 53.3 49.25 50.95L47.15 44.15L53.15 39.4C55 38 53.95 35 51.55 35H44.55L42.4 28.3C41.65 26 38.4 26 37.65 28.3L35.45 35H28.4C26.05 35 25 38 26.85 39.45L32.8 44.2L30.7 51C30 53.35 32.65 55.2 34.6 53.75ZM10 98.05C10 101.45 13.35 103.85 16.6 102.8L40 95L63.4 102.8C66.65 103.9 70 101.5 70 98.05V66.4C76.2 59.35 80 50.15 80 40C80 17.9 62.1 0 40 0C17.9 0 0 17.9 0 40C0 50.15 3.8 59.35 10 66.4V98.05ZM40 10C56.55 10 70 23.45 70 40C70 56.55 56.55 70 40 70C23.45 70 10 56.55 10 40C10 23.45 23.45 10 40 10Z" fill="#7B39E9"/>
</svg>
