<svg width="88" height="96" viewBox="0 0 88 96" fill="none" xmlns="http://www.w3.org/2000/svg">
<g filter="url(#filter0_d_621_1481)">
<path d="M28 70.0952C23.6 70.0952 20.04 74.0381 20.04 78.8571C20.04 83.6762 23.6 87.619 28 87.619C32.4 87.619 36 83.6762 36 78.8571C36 74.0381 32.4 70.0952 28 70.0952ZM4 0V8.7619H12L26.4 42.0133L21 52.7467C20.36 53.9733 20 55.419 20 56.9524C20 61.7714 23.6 65.7143 28 65.7143H76V56.9524H29.68C29.12 56.9524 28.68 56.4705 28.68 55.8571L28.8 55.3314L32.4 48.1905H62.2C65.2 48.1905 67.84 46.3943 69.2 43.6781L83.52 15.2457C83.84 14.6324 84 13.8876 84 13.1429C84 10.7333 82.2 8.7619 80 8.7619H20.84L17.08 0H4ZM68 70.0952C63.6 70.0952 60.04 74.0381 60.04 78.8571C60.04 83.6762 63.6 87.619 68 87.619C72.4 87.619 76 83.6762 76 78.8571C76 74.0381 72.4 70.0952 68 70.0952Z" fill="#FFB030"/>
</g>
<defs>
<filter id="filter0_d_621_1481" x="0" y="0" width="88" height="95.6191" filterUnits="userSpaceOnUse" color-interpolation-filters="sRGB">
<feFlood flood-opacity="0" result="BackgroundImageFix"/>
<feColorMatrix in="SourceAlpha" type="matrix" values="0 0 0 0 0 0 0 0 0 0 0 0 0 0 0 0 0 0 127 0" result="hardAlpha"/>
<feOffset dy="4"/>
<feGaussianBlur stdDeviation="2"/>
<feComposite in2="hardAlpha" operator="out"/>
<feColorMatrix type="matrix" values="0 0 0 0 0 0 0 0 0 0 0 0 0 0 0 0 0 0 0.25 0"/>
<feBlend mode="normal" in2="BackgroundImageFix" result="effect1_dropShadow_621_1481"/>
<feBlend mode="normal" in="SourceGraphic" in2="effect1_dropShadow_621_1481" result="shape"/>
</filter>
</defs>
</svg>
