<svg width="54" height="54" viewBox="0 0 54 54" fill="none" xmlns="http://www.w3.org/2000/svg">
<path d="M34.95 5.93998L19.95 0.68998C18.69 0.23998 17.31 0.23998 16.05 0.65998L4.08 4.67998C1.65 5.51998 0 7.79998 0 10.38V45.93C0 50.16 4.23 53.04 8.16 51.51L16.95 48.09C17.61 47.82 18.36 47.82 19.02 48.06L34.02 53.31C35.28 53.76 36.66 53.76 37.92 53.34L49.89 49.32C52.32 48.51 53.97 46.2 53.97 43.62V8.06998C53.97 3.83998 49.74 0.95998 45.81 2.48998L37.02 5.90998C36.36 6.14998 35.64 6.17998 34.95 5.93998ZM36 47.67L18 41.34V6.32998L36 12.66V47.67Z" fill="#FFB030"/>
</svg>
