<svg width="28" height="29" viewBox="0 0 28 29" fill="none" xmlns="http://www.w3.org/2000/svg">
<g filter="url(#filter0_d_306_5081)">
<path d="M22.5043 4.8241C19.5125 0.199066 13.4044 -1.17594 8.6674 1.69908C4.05511 4.5741 2.55924 10.8241 5.55099 15.4492L5.80031 15.8242L4.80305 19.5742L8.54275 18.5742L8.91672 18.8242C10.5373 19.6992 12.2824 20.1992 14.0276 20.1992C15.8975 20.1992 17.7673 19.6992 19.3879 18.6992C24.0002 15.6992 25.3714 9.57414 22.5043 4.8241ZM19.8865 14.4492C19.3879 15.1992 18.7646 15.6992 17.892 15.8242C17.3934 15.8242 16.7701 16.0742 14.2769 15.0742C12.1578 14.0742 10.4126 12.4492 9.16603 10.5741C8.41809 9.69914 8.04412 8.57413 7.91947 7.44912C7.91947 6.44911 8.29344 5.57411 8.91672 4.9491C9.16603 4.6991 9.41534 4.5741 9.66466 4.5741H10.2879C10.5373 4.5741 10.7866 4.5741 10.9112 5.0741C11.1605 5.69911 11.7838 7.19912 11.7838 7.32412C11.9085 7.44912 11.9085 7.69912 11.7838 7.82412C11.9085 8.07413 11.7838 8.32413 11.6592 8.44913C11.5345 8.57413 11.4098 8.82413 11.2852 8.94913C11.0359 9.07413 10.9112 9.32414 11.0359 9.57414C11.5345 10.3241 12.1578 11.0741 12.7811 11.6992C13.529 12.3242 14.2769 12.8242 15.1495 13.1992C15.3989 13.3242 15.6482 13.3242 15.7728 13.0742C15.8975 12.8242 16.5208 12.1992 16.7701 11.9492C17.0194 11.6992 17.144 11.6992 17.3934 11.8242L19.3879 12.8242C19.6372 12.9492 19.8865 13.0742 20.0111 13.1992C20.1358 13.5742 20.1358 14.0742 19.8865 14.4492Z" fill="white"/>
</g>
<defs>
<filter id="filter0_d_306_5081" x="0" y="0.199219" width="28" height="28" filterUnits="userSpaceOnUse" color-interpolation-filters="sRGB">
<feFlood flood-opacity="0" result="BackgroundImageFix"/>
<feColorMatrix in="SourceAlpha" type="matrix" values="0 0 0 0 0 0 0 0 0 0 0 0 0 0 0 0 0 0 127 0" result="hardAlpha"/>
<feOffset dy="4"/>
<feGaussianBlur stdDeviation="2"/>
<feComposite in2="hardAlpha" operator="out"/>
<feColorMatrix type="matrix" values="0 0 0 0 0 0 0 0 0 0 0 0 0 0 0 0 0 0 0.25 0"/>
<feBlend mode="normal" in2="BackgroundImageFix" result="effect1_dropShadow_306_5081"/>
<feBlend mode="normal" in="SourceGraphic" in2="effect1_dropShadow_306_5081" result="shape"/>
</filter>
</defs>
</svg>
