<svg width="35" height="27" viewBox="0 0 35 27" fill="none" xmlns="http://www.w3.org/2000/svg">
<g filter="url(#filter0_d_306_5079)">
<path d="M29.7021 2.87402C29.5527 2.3175 29.2597 1.80997 28.8525 1.40225C28.4453 0.994533 27.9382 0.700914 27.3818 0.550781C25.334 1.11759e-07 17.125 0 17.125 0C17.125 0 8.91602 -1.11759e-07 6.86816 0.547851C6.31158 0.697497 5.80417 0.990953 5.39689 1.39875C4.98961 1.80655 4.69679 2.31432 4.54785 2.87109C4 4.92188 4 9.19922 4 9.19922C4 9.19922 4 13.4766 4.54785 15.5244C4.84961 16.6553 5.74023 17.5459 6.86816 17.8477C8.91602 18.3984 17.125 18.3984 17.125 18.3984C17.125 18.3984 25.334 18.3984 27.3818 17.8477C28.5127 17.5459 29.4004 16.6553 29.7021 15.5244C30.25 13.4766 30.25 9.19922 30.25 9.19922C30.25 9.19922 30.25 4.92188 29.7021 2.87402ZM14.5176 13.125V5.27344L21.3145 9.16992L14.5176 13.125Z" fill="white"/>
</g>
<defs>
<filter id="filter0_d_306_5079" x="0" y="0" width="34.25" height="26.3984" filterUnits="userSpaceOnUse" color-interpolation-filters="sRGB">
<feFlood flood-opacity="0" result="BackgroundImageFix"/>
<feColorMatrix in="SourceAlpha" type="matrix" values="0 0 0 0 0 0 0 0 0 0 0 0 0 0 0 0 0 0 127 0" result="hardAlpha"/>
<feOffset dy="4"/>
<feGaussianBlur stdDeviation="2"/>
<feComposite in2="hardAlpha" operator="out"/>
<feColorMatrix type="matrix" values="0 0 0 0 0 0 0 0 0 0 0 0 0 0 0 0 0 0 0.25 0"/>
<feBlend mode="normal" in2="BackgroundImageFix" result="effect1_dropShadow_306_5079"/>
<feBlend mode="normal" in="SourceGraphic" in2="effect1_dropShadow_306_5079" result="shape"/>
</filter>
</defs>
</svg>
